<svg xmlns="http://www.w3.org/2000/svg" width="995" height="666" viewBox="0 0 995 666">
  <g fill="none" fill-rule="evenodd">
    <path fill="#F2F2F2" fill-rule="nonzero" d="M711.3297,91.37741 C626.34435,90.98695 549.96237,128.06936 497.5007,187.1473 C445.03904,128.0693 368.65709,90.98697 283.6717,91.37741 C124.08643,92.1106 -3.0993,223.48785 0.05752,384.16326 C3.11918,539.99682 129.52026,665.37436 285.0007,665.37436 C291.03302,665.37436 297.019663,665.18742 302.96063,664.81354 C432.526967,656.69526 562.474433,656.69526 692.04077,664.81354 C697.97991,665.18554 703.966553,665.37248 710.0007,665.37436 C865.48118,665.37436 991.88219,539.99685 994.94388,384.16336 C998.1007,223.48791 870.91502,92.11062 711.3297,91.37741 Z"/>
    <path stroke="#3F3D56" d="M657.38135,7.45736 C648.687199,7.94846325 641.017352,13.3111774 637.57141,21.30836 C632.61791,33.28218 638.9959,47.34721 648.57041,56.07864 C658.14492,64.81007 670.44399,69.80089 681.61872,76.36098 C696.62824,85.17226 710.11552,97.4038 717.62563,113.10484 C725.13574,128.80588 725.93451,148.25493 717.10672,163.25475 C708.91302,177.17715 694.01417,185.50965 679.80453,193.19445"/>
    <ellipse cx="670.001" cy="8.5" fill="#57B894" fill-rule="nonzero" rx="17.5" ry="8.5"/>
    <ellipse cx="684.001" cy="64.5" fill="#57B894" fill-rule="nonzero" rx="17.5" ry="8.5"/>
    <ellipse cx="652.001" cy="73.5" fill="#57B894" fill-rule="nonzero" rx="17.5" ry="8.5"/>
    <ellipse cx="702.001" cy="120.5" fill="#57B894" fill-rule="nonzero" rx="17.5" ry="8.5"/>
    <ellipse cx="737.001" cy="120.5" fill="#57B894" fill-rule="nonzero" rx="17.5" ry="8.5"/>
    <path stroke="#3F3D56" d="M749.86126,286.24736 C741.854535,282.823654 732.600484,284.219293 725.9596,289.85206 C716.20101,298.37728 715.66419,313.81152 720.36116,325.88827 C725.05813,337.96502 733.85811,347.90158 740.95352,358.74427 C750.48383,373.30784 757.13052,390.2589 756.88087,407.66184 C756.63122,425.06478 748.70373,442.84284 734.12968,452.35709 C720.60247,461.18799 703.55268,462.03153 687.40818,462.60114"/>
    <ellipse cx="760.703" cy="292.789" fill="#57B894" fill-rule="nonzero" rx="8.5" ry="17.5" transform="rotate(-63.615 760.703 292.79)"/>
    <ellipse cx="748.358" cy="349.177" fill="#57B894" fill-rule="nonzero" rx="8.5" ry="17.5" transform="rotate(-63.615 748.358 349.177)"/>
    <ellipse cx="715.692" cy="343.019" fill="#57B894" fill-rule="nonzero" rx="8.5" ry="17.5" transform="rotate(-63.615 715.692 343.02)"/>
    <ellipse cx="739.597" cy="407.343" fill="#57B894" fill-rule="nonzero" rx="8.5" ry="17.5" transform="rotate(-63.615 739.597 407.343)"/>
    <ellipse cx="770.951" cy="422.897" fill="#57B894" fill-rule="nonzero" rx="8.5" ry="17.5" transform="rotate(-63.615 770.951 422.897)"/>
    <path stroke="#3F3D56" d="M298.00381,366.40911 C304.179885,360.270273 313.29507,358.149323 321.54681,360.93105 C333.76413,365.24922 339.9635,379.3939 340.0591,392.35153 C340.1547,405.30916 335.64691,417.79335 333.05787,430.49005 C329.58035,447.54383 329.66435,465.75124 336.32399,481.83147 C342.98363,497.9117 356.91677,511.50475 373.97436,514.96347 C389.80673,518.17379 405.96253,512.66047 421.17591,507.22698"/>
    <ellipse cx="290.345" cy="376.493" fill="#57B894" fill-rule="nonzero" rx="17.5" ry="8.5" transform="rotate(-48.06 290.345 376.493)"/>
    <ellipse cx="322.643" cy="424.334" fill="#57B894" fill-rule="nonzero" rx="17.5" ry="8.5" transform="rotate(-48.06 322.643 424.334)"/>
    <ellipse cx="350.725" cy="406.547" fill="#57B894" fill-rule="nonzero" rx="17.5" ry="8.5" transform="rotate(-48.06 350.725 406.547)"/>
    <ellipse cx="352.268" cy="475.152" fill="#57B894" fill-rule="nonzero" rx="17.5" ry="8.5" transform="rotate(-48.06 352.268 475.152)"/>
    <ellipse cx="328.875" cy="501.186" fill="#57B894" fill-rule="nonzero" rx="17.5" ry="8.5" transform="rotate(-48.06 328.875 501.186)"/>
    <path fill="#45BEF4" fill-rule="nonzero" d="M700.4807,250.95996 L697.7307,271.12996 L680.7307,395.58996 L652.8907,599.40996 L645.9207,650.43996 C644.822645,658.496028 637.941257,664.501758 629.8107,664.49996 L444.1607,664.49996 C436.044201,664.502363 429.168947,658.519057 428.0507,650.47996 L420.9607,599.40996 L392.6507,395.58996 L375.3507,271.03996 L372.5707,250.99996 C371.921247,246.342204 373.320852,241.631447 376.408164,238.083915 C379.495475,234.536383 383.967884,232.499795 388.6707,232.49996 L684.3707,232.49996 C689.066071,232.502017 693.531501,234.532983 696.618809,238.070643 C699.706117,241.608304 701.11409,246.307506 700.4807,250.95996 Z"/>
    <rect width="290" height="54" x="392.001" y="178.5" fill="#2F2E41" fill-rule="nonzero" rx="16.26"/>
    <path fill="#000" fill-rule="nonzero" d="M682.0007,204.01996 L682.0007,216.23996 C682.000573,225.220057 674.720797,232.499833 665.7407,232.49996 L408.2607,232.49996 C399.280603,232.499833 392.000827,225.220057 392.0007,216.23996 L392.0007,204.04996 C488.449422,213.239989 585.553882,213.229943 682.0007,204.01996 L682.0007,204.01996 Z" opacity=".1"/>
    <circle cx="459.501" cy="343" r="44" fill="#2F2E41" fill-rule="nonzero"/>
    <circle cx="615.501" cy="343" r="44" fill="#2F2E41" fill-rule="nonzero"/>
    <circle cx="457.501" cy="343" r="12" fill="#FFF" fill-rule="nonzero"/>
    <circle cx="475.501" cy="320" r="5" fill="#FFF" fill-rule="nonzero"/>
    <circle cx="615.501" cy="343" r="12" fill="#FFF" fill-rule="nonzero"/>
    <circle cx="633.501" cy="320" r="5" fill="#FFF" fill-rule="nonzero"/>
    <path fill="#000" fill-rule="nonzero" d="M699.55612,243 L699.55807,243 C699.55343,242.98773 699.54745,242.97613 699.54275,242.96392 C699.114727,241.844673 698.564266,240.776181 697.9014,239.77792 L697.89969,239.77524 C697.70364,239.48068 697.49643,239.19571 697.28195,238.91476 C697.21042,238.82076 697.13669,238.72876 697.0632,238.63632 C696.439786,237.854313 695.746029,237.131072 694.99063,236.47567 C694.82205,236.32901 694.65207,236.18441 694.47745,236.04467 C694.28134,235.88824 694.08407,235.73455 693.88064,235.58709 C693.62631,235.40222 693.36386,235.22845 693.09848,235.05822 C692.88913,234.92431 692.67911,234.79284 692.46316,234.66839 C692.129793,234.475577 691.78924,234.294223 691.4415,234.12433 C691.2755,234.04394 691.10721,233.96911 690.93808,233.89422 C690.60574,233.74664 690.267443,233.61043 689.92319,233.48559 C689.78445,233.43512 689.64859,233.37982 689.50802,233.33307 C689.03164,233.17413 688.545437,233.037167 688.04941,232.92218 C687.92795,232.8941 687.80368,232.87418 687.68118,232.84881 C687.27554,232.76481 686.864307,232.696247 686.44748,232.64312 C686.29666,232.6239 686.14657,232.60437 685.99441,232.58935 C685.46048,232.53643 684.92135,232.50012 684.37192,232.50006 L684.3707,232.5 L388.6707,232.5 C383.973939,232.515676 379.512103,234.556137 376.42822,238.098661 C373.344337,241.641185 371.938032,246.341585 372.56957,250.99572 L373.03917,254.37683 L375.3507,271.03997 L375.3535,271.04022 L392.65207,395.58996 L392.6507,395.58996 L415.35902,559.08007 L428.05311,650.47772 C429.16957,658.5159 436.042256,664.49999 444.1576,664.5 L452.96784,664.5 C452.53193,663.363885 452.225095,662.182376 452.05311,660.97772 L443.50202,599.40997 L652.8907,599.40997 L680.7307,395.58997 L415.19375,395.58997 L398.17203,273.03369 C497.889947,281.120662 598.123618,280.483678 697.7307,271.13 L700.4807,250.96 C700.846722,248.271133 700.528723,245.533381 699.55612,243 L699.55612,243 Z" opacity=".1"/>
    <path fill="#2F2E41" fill-rule="nonzero" d="M723.7417 259.5C599.616339 273.04855 474.385121 273.04855 350.25976 259.5 341.280162 259.5 334.00076 252.220598 334.00076 243.241L334.00076 221.759C334.00076 212.779402 341.280162 205.5 350.25976 205.5 474.286763 220.749366 599.714697 220.749366 723.7417 205.5 732.721298 205.5 740.0007 212.779402 740.0007 221.759L740.0007 243.241C740.0007 252.220598 732.721298 259.5 723.7417 259.5zM660.53506 592L410.54996 592C405.91375 592.000003 401.96564 588.629147 401.23884 584.05026L374.23175 413.90564C373.7993 411.181192 374.581786 408.404022 376.372973 406.306099 378.164159 404.208176 380.784324 402.999998 383.54288 403L689.34261 403C692.118141 402.999999 694.752651 404.223033 696.543959 406.343125 698.335268 408.463216 699.101346 411.264926 698.63801 414.00151L669.83045 584.14613C669.062636 588.681042 665.134512 591.999996 660.53506 592L660.53506 592z"/>
    <path fill="#45BEF4" fill-rule="nonzero" d="M632.08955,470.72095 C634.490484,471.15982 636.459236,472.876441 637.221001,475.195234 C637.982766,477.514027 637.415584,480.063748 635.74267,481.84095 C619.88173,498.74789 581.42427,533.99995 536.50067,533.99995 C491.57707,533.99995 453.11967,498.74786 437.25867,481.84095 C435.585756,480.063748 435.018574,477.514027 435.780339,475.195234 C436.542104,472.876441 438.510856,471.15982 440.91179,470.72095 C504.107259,459.093016 568.894021,459.093016 632.08949,470.72095 L632.08955,470.72095 Z"/>
    <path fill="#FFF" fill-rule="nonzero" d="M586.49889,481.26402 C588.982068,481.660088 591.030766,483.420386 591.796204,485.81562 C592.561642,488.210855 591.913429,490.832997 590.12012,492.59569 C579.37912,503.0683 559.38817,518.85981 536.5007,518.85981 C513.61323,518.85981 493.62233,503.0683 482.88128,492.59569 C481.087971,490.832997 480.439758,488.210855 481.205196,485.81562 C481.970634,483.420386 484.019332,481.660088 486.50251,481.26402 C519.607881,475.765567 553.393519,475.765567 586.49889,481.26402 L586.49889,481.26402 Z"/>
    <path stroke="#3F3D56" d="M126.5007,665 L817.5007,665"/>
  </g>
</svg>
